<svg width="183" height="20" fill="none" xmlns="http://www.w3.org/2000/svg"><mask id="a" style="mask-type:luminance" maskUnits="userSpaceOnUse" x="0" y="0" width="183" height="20"><path fill-rule="evenodd" clip-rule="evenodd" d="M0 .083h182.55v19.374H0V.083Z" fill="#fff"/></mask><g mask="url(#a)" fill-rule="evenodd" clip-rule="evenodd" fill="#21242E"><path d="M182.549 19.457 174.82 8.76l7.231-8.678h-4.055l-9.073 10.688V.083h-3.276v19.374h3.276V15.84l3.685-4.423 6.001 8.04h3.94ZM7.832 10.682c2.997 0 4.718-1.273 4.718-3.901 0-2.547-1.72-3.765-4.718-3.765H3.225v7.666h4.607Zm4.44 8.775L8.72 13.589c-.277.028-.582.028-.887.028H3.225v5.84H-.05V.083h7.882c4.968 0 7.827 2.407 7.827 6.614 0 3.1-1.444 5.287-4.025 6.283l4.357 6.477h-3.718Z"/></g><path fill-rule="evenodd" clip-rule="evenodd" d="M39.739.083v2.933H28.845v5.232h10.894v2.933H28.845v5.342h10.934v2.934H25.57V.083h14.17ZM64.039 9.797c0-3.958-2.97-6.781-6.799-6.781h-4.635v13.506h4.773c3.775 0 6.66-2.794 6.66-6.724Zm3.302-.027c0 5.59-4.245 9.687-10.129 9.687H49.33V.083h7.965C63.123.083 67.34 4.15 67.34 9.77ZM88.743 13.727c0-1.715-1.526-2.74-4.08-2.74h-4.995v5.563h4.996c2.553 0 4.08-.996 4.08-2.823Zm-.75-8.22c0-1.633-1.248-2.519-3.33-2.519h-4.995v5.12h4.996c2.08 0 3.329-.968 3.329-2.601Zm3.36-.581c0 2.186-1.305 3.819-3.415 4.317 2.609.443 4.163 2.298 4.163 4.9 0 3.321-2.692 5.314-7.076 5.314h-8.633V.083h8.438c4.025 0 6.522 1.826 6.522 4.843ZM109.424 10.682c2.997 0 4.717-1.273 4.717-3.901 0-2.547-1.72-3.765-4.717-3.765h-4.608v7.666h4.608Zm4.439 8.775-3.553-5.868c-.276.028-.582.028-.886.028h-4.608v5.84h-3.275V.083h7.883c4.967 0 7.825 2.407 7.825 6.614 0 3.1-1.443 5.287-4.023 6.283l4.356 6.477h-3.719Z" fill="#21242E"/><mask id="b" style="mask-type:luminance" maskUnits="userSpaceOnUse" x="127" y="0" width="30" height="20"><path fill-rule="evenodd" clip-rule="evenodd" d="M127.161 0h29.774v19.545h-29.774V0Z" fill="#fff"/></mask><g mask="url(#b)" fill-rule="evenodd" clip-rule="evenodd" fill="#21242E"><path d="M127.161 19.456h3.274V.083h-3.274v19.373ZM149.58 2.905c-3.885 0-6.937 2.99-6.937 6.81 0 3.818 3.052 6.835 6.937 6.835 1.944 0 3.942-.885 5.413-2.297l1.942 2.159c-1.97 1.938-4.773 3.183-7.521 3.183-5.689 0-10.102-4.29-10.102-9.853 0-5.508 4.468-9.743 10.213-9.743 2.748 0 5.495 1.135 7.382 2.99l-1.914 2.38c-1.415-1.522-3.442-2.464-5.413-2.464Z"/></g></svg>